<?xml version="1.0" encoding="UTF-8" standalone="no"?>
<!-- Created with Inkscape (http://www.inkscape.org/) -->

<svg
   width="294.75467mm"
   height="131.1382mm"
   viewBox="0 0 294.75467 131.1382"
   version="1.1"
   id="svg5"
   xml:space="preserve"
   inkscape:version="1.2.2 (b0a8486541, 2022-12-01)"
   sodipodi:docname="logo.svg"
   xmlns:inkscape="http://www.inkscape.org/namespaces/inkscape"
   xmlns:sodipodi="http://sodipodi.sourceforge.net/DTD/sodipodi-0.dtd"
   xmlns="http://www.w3.org/2000/svg"
   xmlns:svg="http://www.w3.org/2000/svg">
   
   <style>
     /* CSS variables for dynamic theming */
     :root {
       --logo-fill: #000000;
     }
     
     @media (prefers-color-scheme: dark) {
       :root {
         --logo-fill: #f9fafb;
       }
     }
   </style>
   
   <sodipodi:namedview
     id="namedview7"
     pagecolor="#ffffff"
     bordercolor="#666666"
     borderopacity="1.0"
     inkscape:showpageshadow="2"
     inkscape:pageopacity="0.0"
     inkscape:pagecheckerboard="0"
     inkscape:deskcolor="#d1d1d1"
     inkscape:document-units="mm"
     showgrid="false"
     inkscape:zoom="0.70199214"
     inkscape:cx="556.98629"
     inkscape:cy="256.41313"
     inkscape:window-width="1854"
     inkscape:window-height="1011"
     inkscape:window-x="0"
     inkscape:window-y="0"
     inkscape:window-maximized="1"
     inkscape:current-layer="layer1" />
     
   <defs
     id="defs2" />
     
   <g
     inkscape:label="Layer 1"
     inkscape:groupmode="layer"
     id="layer1"
     transform="translate(42.216813,-80.7667)">
     
     <path
       style="fill:var(--logo-fill);stroke-width:0.264583"
       d="m 22.473812,211.62566 c -4.660129,-0.91344 -8.326662,-2.83606 -11.869604,-6.22403 -4.788146,-4.57866 -7.0423695,-9.88181 -7.0462483,-16.57649 -0.00286,-4.93807 0.9574794,-8.19388 3.5921393,-12.17832 4.840404,-7.32022 13.234587,-11.34059 21.804571,-10.44326 3.358724,0.35166 5.023662,0.80833 7.541619,2.06854 11.620783,5.8161 16.362801,19.33562 10.743948,30.63102 -1.554556,3.12508 -3.188702,5.22685 -5.720564,7.35748 -2.964452,2.49471 -6.081484,4.11504 -9.785444,5.0868 -2.225149,0.58378 -6.973856,0.72647 -9.260417,0.27826 z m 7.737494,-9.52632 c 2.376556,-0.63267 3.837617,-1.50587 5.76078,-3.44289 2.967313,-2.98871 4.096517,-5.71283 4.096517,-9.88258 0,-7.58185 -5.784897,-13.28637 -13.473596,-13.28637 -3.865679,0 -7.08955,1.31149 -9.811218,3.99121 -7.151319,7.04115 -3.968908,19.36882 5.807771,22.49749 1.81366,0.58039 5.668155,0.64268 7.619746,0.12314 z m 132.094794,9.72788 c -4.95755,-0.6604 -10.14722,-3.33314 -12.91389,-6.65077 -2.45981,-2.94971 -4.01246,-6.73481 -4.52689,-11.03583 -0.16513,-1.38059 -0.28511,-7.56549 -0.28556,-14.71813 0,-10.18008 0.0632,-12.38996 0.36517,-12.64055 0.25085,-0.2082 1.72744,-0.28078 4.69636,-0.23082 l 4.33043,0.0728 0.13367,14.02291 0.13369,14.02292 0.63691,1.5875 c 0.8763,2.18416 3.27715,4.57991 5.44573,5.43417 1.33234,0.52483 2.05531,0.6246 4.49792,0.62071 3.28454,-0.005 4.43696,-0.32493 6.66165,-1.8479 1.47754,-1.01148 2.96587,-2.96347 3.71208,-4.86844 0.41754,-1.06601 0.48061,-2.64459 0.60256,-15.08125 l 0.13621,-13.89062 h 4.63021 4.6302 v 14.41979 c 0,14.26686 -0.006,14.44212 -0.60938,16.52452 -1.02701,3.54719 -2.22756,5.52911 -5.06233,8.35703 -2.0669,2.06189 -2.9423,2.72724 -4.77933,3.63249 -1.23692,0.60952 -3.19415,1.34972 -4.3494,1.64486 -2.08852,0.53361 -6.31706,0.86021 -8.08601,0.62457 z M -6.9586849,205.58385 c -15.3782701,-17.95383 -25.3059871,-29.4446 -25.5071021,-29.52308 -0.124312,-0.0485 -0.226023,1.35406 -0.226023,3.11682 v 3.205 l 2.189792,2.43943 c 1.204386,1.34168 3.347511,3.72825 4.7625,5.30347 1.414989,1.57522 2.567554,3.06351 2.561254,3.30729 -0.0063,0.24379 -0.583785,1.08202 -1.283298,1.86272 -0.957688,1.06884 -1.396,1.37914 -1.774484,1.25619 -0.276452,-0.0898 -1.812327,-1.60991 -3.413056,-3.37804 l -2.910416,-3.21479 -0.06912,10.58399 -0.06911,10.58397 -2.576722,0.17063 c -3.250469,0.21526 -5.982242,0.22061 -6.523828,0.0127 -0.378211,-0.14513 -0.418515,-3.0371 -0.418515,-30.03021 0,-28.27943 0.02466,-29.86841 0.46302,-29.84706 0.254662,0.0124 1.713177,1.45965 3.241146,3.21614 3.094858,3.5577 17.282937,20.07878 23.415624,27.26595 2.182812,2.55812 4.117578,4.65873 4.299479,4.66804 0.246364,0.0127 0.330729,-0.75808 0.330729,-3.02114 v -3.03805 l -3.108854,-3.53383 c -1.70987,-1.9436 -3.912526,-4.42971 -4.894791,-5.52466 -0.982266,-1.09498 -1.785938,-2.12744 -1.785938,-2.29436 0,-0.50379 2.218788,-3.16791 2.655893,-3.18897 0.223816,-0.0109 1.81011,1.4687 3.525099,3.28771 1.714989,1.81901 3.228509,3.30729 3.363375,3.30729 0.146468,0 0.245216,-4.2504 0.245216,-10.55465 V 151.4677 l 0.5953125,-0.13129 c 1.3224007,-0.29162 8.1810459,-0.21801 8.554365,0.0918 0.56361542,0.46776 0.56503623,60.30711 0.00132,60.30711 -0.2056394,0 -2.7449831,-2.7682 -5.6429854,-6.15156 z m 61.3677039,5.56948 c -0.459941,-0.45995 -0.459941,-43.88421 0,-44.34416 0.409022,-0.40902 22.186997,-0.45152 24.317636,-0.0474 3.177416,0.60258 6.79164,3.07602 8.329692,5.7005 1.670645,2.85072 2.283737,6.6204 1.600731,9.84223 -0.768008,3.62281 -2.937107,6.63456 -6.25181,8.6805 -0.874958,0.54004 -1.590833,1.08014 -1.590833,1.20021 0,0.37674 4.20367,4.28299 5.910055,5.4919 4.963303,3.51634 10.098781,4.44069 23.30444,4.19457 7.76579,-0.1447 8.89773,-0.31488 11.78322,-1.77149 4.04929,-2.04406 7.19233,-6.21895 8.48397,-11.26919 0.72276,-2.82596 0.71972,-7.61912 -0.007,-10.64945 -1.07883,-4.50019 -3.4263,-8.48034 -7.0622,-11.97411 -2.79064,-2.68153 -4.75673,-4.00362 -10.45445,-7.03006 -2.37012,-1.25894 -5.05347,-2.69391 -5.96297,-3.18881 l -1.65365,-0.89985 v -4.86622 c 0,-3.08133 0.10086,-4.92857 0.27498,-5.03618 0.31533,-0.19487 12.58263,6.15357 16.8493,8.71969 6.81014,4.09585 11.44424,8.93413 14.6535,15.29913 2.62594,5.20811 3.57225,9.6489 3.33386,15.64513 -0.16936,4.2595 -0.69961,6.75412 -2.19229,10.31388 -3.15079,7.51401 -9.40697,13.17527 -16.86049,15.25717 -4.09379,1.14345 -19.36713,1.3562 -25.716149,0.35819 -5.092001,-0.80041 -10.708383,-3.03826 -14.606695,-5.82004 -2.982764,-2.12846 -6.505104,-5.68391 -13.364011,-13.48964 -0.26783,-0.3048 -0.421931,-0.72152 -0.342453,-0.92605 0.07948,-0.20452 1.005581,-0.90021 2.058001,-1.54598 7.067062,-4.33634 9.943078,-6.67388 10.023183,-8.14655 0.129151,-2.37434 -0.5544,-3.76573 -2.167001,-4.41097 -0.863171,-0.34536 -2.181087,-0.42357 -7.138669,-0.42357 h -6.080194 v 17.45318 c 0,16.98466 -0.01373,17.46054 -0.511773,17.72708 -0.745008,0.39873 -8.556,0.36071 -8.96031,-0.0436 z m 136.818421,-0.0132 c -0.2757,-0.42595 -0.28184,-43.57129 -0.006,-44.18541 0.17253,-0.38458 0.56316,-0.46302 2.30523,-0.46302 h 2.09751 l 1.07805,1.5875 c 0.59293,0.87312 1.20687,1.5875 1.36432,1.5875 0.15743,0 0.95782,-0.40797 1.77861,-0.90657 3.4894,-2.11969 8.61565,-3.02713 12.89611,-2.28277 2.31587,0.40272 5.61885,1.95463 7.5769,3.56007 l 1.52325,1.24891 1.51945,-1.17356 c 3.52177,-2.72002 5.98948,-3.61415 10.52349,-3.81304 5.6506,-0.24783 9.55072,1.17324 13.28301,4.83989 1.79474,1.76316 2.36212,2.53302 3.21958,4.36862 1.77509,3.79989 1.84351,4.4932 2.04745,20.74616 0.17478,13.93171 0.16269,14.51253 -0.30903,14.85746 -0.36256,0.26512 -1.53289,0.35793 -4.47527,0.35494 -2.19139,-0.003 -4.12832,-0.0956 -4.3043,-0.2074 -0.24225,-0.15394 -0.33985,-3.73645 -0.40179,-14.74648 -0.0747,-13.26933 -0.12372,-14.65191 -0.55981,-15.7852 -0.66971,-1.74037 -2.30618,-3.4921 -4.06728,-4.35371 -1.96881,-0.96327 -5.33995,-1.05125 -7.2323,-0.18876 -1.75271,0.79886 -3.0397,2.04388 -3.87856,3.75214 l -0.73821,1.50325 -0.0787,14.80881 c -0.0594,11.17457 -0.15679,14.85844 -0.39687,15.01106 -0.46014,0.29247 -8.18134,0.24921 -8.65257,-0.0485 -0.34239,-0.2163 -0.41502,-2.27671 -0.52916,-15.01106 -0.12819,-14.30353 -0.14954,-14.79756 -0.68943,-15.96437 -1.27411,-2.96982 -3.70594,-4.50591 -7.11578,-4.68757 -1.71103,-0.0912 -2.40437,-0.004 -3.61796,0.45355 -1.80925,0.68246 -3.50232,2.24779 -4.26324,3.94152 -0.54141,1.20512 -0.55279,1.55176 -0.52242,15.90326 0.019,8.96315 -0.068,14.85651 -0.22373,15.14739 -0.22944,0.42873 -0.68683,0.47612 -4.59552,0.47612 -3.18201,0 -4.39782,-0.0883 -4.55475,-0.33073 z m -90.70155,-13.33984 c -3.864224,-0.23783 -4.641456,-0.38804 -5.017839,-0.96959 -0.838412,-1.29548 -1.487101,-4.72903 -1.48716,-7.87162 -1.24e-4,-6.63459 1.836119,-11.31779 6.199039,-15.81023 3.73875,-3.84971 9.02483,-6.2951 14.76147,-6.82876 l 1.75551,-0.1633 2.31201,2.21797 c 1.27159,1.21989 2.82078,2.93235 3.44263,3.80548 1.32527,1.86073 2.95468,5.06576 2.70324,5.31720 -0.0961,0.0962 -0.9235,-0.13674 -1.83853,-0.51753 -2.32024,-0.96562 -3.65699,-1.21388 -6.57662,-1.22134 -7.33679,-0.0188 -12.53453,4.56856 -13.33341,11.7675 -0.28175,2.53894 0.21926,4.96715 1.57512,7.63384 0.65497,1.2882 1.12479,2.44906 1.04407,2.57968 -0.13735,0.22225 -2.49544,0.24808 -5.53953,0.0607 z m 30.29479,-47.89019 c -5.07394,-0.64495 -9.12934,-2.06539 -14.41979,-5.05068 -3.50313,-1.97673 -7.01146,-4.32899 -7.01146,-4.70102 0,-0.32627 4.24053,-4.38256 4.78864,-4.58061 0.13693,-0.0495 1.40745,0.66159 2.8234,1.58014 3.72004,2.41328 8.07598,4.60431 10.51192,5.28748 3.99404,1.12017 9.38138,0.55385 9.60689,-1.00986 0.2259,-1.56637 -2.5618,-4.65066 -5.31985,-5.88582 -0.90265,-0.40425 -4.09575,-1.52361 -7.09572,-2.48746 -2.99998,-0.96384 -5.59634,-1.92335 -5.76969,-2.13222 -0.25564,-0.30804 0.04,-0.85857 1.56493,-2.91427 1.03404,-1.39398 1.97085,-2.5345 2.08179,-2.5345 0.5075,0 8.68283,2.43264 10.10264,3.00613 5.1498,2.08009 9.59623,6.58382 12.31971,12.47844 0.49382,1.06879 0.89784,2.18015 0.89784,2.46971 0,0.69218 -3.00992,3.18685 -5.27471,4.37176 -2.92944,1.53268 -7.15806,2.43941 -9.80654,2.10278 z m -54.85877,-0.36433 c -3.488621,-0.58555 -6.339747,-1.90717 -9.566904,-4.43471 -0.948682,-0.74303 -1.455571,-1.33548 -1.455571,-1.7013 0,-1.07214 2.86298,-6.38951 4.62007,-8.58078 3.4277,-4.27469 7.3081,-6.41061 15.760014,-8.6749 1.378505,-0.36931 2.690018,-0.67176 2.914469,-0.67213 0.425998,-8e-4 3.957529,4.60888 3.957529,5.16562 0,0.35713 -2.121331,1.15426 -7.408333,2.78382 -4.257468,1.31223 -6.935448,2.49878 -8.255497,3.65779 -1.331251,1.16886 -2.911998,3.61076 -2.808557,4.3386 0.205266,1.4443 5.206965,1.97897 9.095994,0.97236 2.908876,-0.75291 8.843898,-3.71840 12.948268,-6.46971 4.335858,-2.9065 5.138098,-3.55504 8.825918,-7.13504 9.63271,-9.35109 13.27817,-17.29592 11.51247,-25.09 -0.57221,-2.52584 -1.38504,-4.30886 -3.18439,-6.985379 -1.33742,-1.989389 -5.96871,-6.922418 -7.08607,-7.547724 -0.62953,-0.3523 -1.44868,0.245631 -4.39399,3.207369 -3.547103,3.566893 -5.668789,6.858198 -6.764508,10.493584 -0.648909,2.15295 -0.653915,7.01015 -0.0097,9.37888 0.749728,2.75654 2.861315,6.78534 5.198819,9.91905 1.630679,2.18614 2.107439,3.00677 1.921429,3.30729 -0.44169,0.71363 -4.373741,3.99109 -4.671995,3.89421 -0.159324,-0.0517 -1.242182,-1.35085 -2.406349,-2.8869 -3.130092,-4.12996 -5.414499,-8.57663 -6.559443,-12.76818 -0.493006,-1.80485 -0.578708,-2.78801 -0.565944,-6.49256 0.01392,-4.04195 0.06978,-4.53236 0.753377,-6.61458 1.588664,-4.839042 4.112858,-8.753883 8.307152,-12.883791 2.939981,-2.894866 8.084622,-6.959959 8.808232,-6.959959 0.76329,0 5.27259,3.660762 8.45074,6.860495 6.31785,6.36081 9.24859,12.702095 9.24859,20.011345 0,5.05263 -1.12972,9.19907 -3.75357,13.77694 -2.10979,3.68094 -3.97441,5.98907 -8.54091,10.57237 -6.15211,6.17478 -11.350571,10.01698 -18.37579,13.58163 -6.963637,3.5334 -11.971186,4.73903 -16.515593,3.97629 z m 28.72252,-28.75103 c -0.82783,-0.70589 -3.49708,-4.84382 -3.49708,-5.42126 0,-0.276 0.20836,-0.88285 0.46302,-1.34857 0.39243,-0.71767 0.46972,-1.65343 0.50692,-6.13842 0.0241,-2.91042 0.0539,-5.43008 0.0661,-5.59926 0.0347,-0.4795 2.67298,-3.528864 3.05316,-3.528864 0.18661,0 0.97996,0.768546 1.76305,1.707874 l 1.42375,1.70788 0.13229,5.36973 c 0.11224,4.55592 0.20799,5.5221 0.63175,6.37516 0.41801,0.84149 0.44746,1.11955 0.1806,1.70525 -0.51604,1.13256 -2.61397,4.15343 -3.42233,4.92788 -0.72445,0.69407 -0.7633,0.70131 -1.30127,0.2426 z"
       id="path350" />
       
   </g>
</svg>