<?xml version="1.0" encoding="UTF-8" standalone="no"?>
<!-- Created with Inkscape (http://www.inkscape.org/) -->

<svg
   width="41.323086mm"
   height="60.582771mm"
   viewBox="0 0 41.323086 60.582772"
   version="1.1"
   id="svg5"
   xml:space="preserve"
   sodipodi:docname="logo-small.svg"
   inkscape:version="1.2.2 (b0a8486541, 2022-12-01)"
   xmlns:inkscape="http://www.inkscape.org/namespaces/inkscape"
   xmlns:sodipodi="http://sodipodi.sourceforge.net/DTD/sodipodi-0.dtd"
   xmlns="http://www.w3.org/2000/svg"
   xmlns:svg="http://www.w3.org/2000/svg"><sodipodi:namedview
     id="namedview7"
     pagecolor="#ffffff"
     bordercolor="#666666"
     borderopacity="1.0"
     inkscape:showpageshadow="2"
     inkscape:pageopacity="0.0"
     inkscape:pagecheckerboard="0"
     inkscape:deskcolor="#d1d1d1"
     inkscape:document-units="mm"
     showgrid="false"
     inkscape:zoom="0.70199214"
     inkscape:cx="556.98629"
     inkscape:cy="-9.9716216"
     inkscape:window-width="1854"
     inkscape:window-height="1011"
     inkscape:window-x="0"
     inkscape:window-y="0"
     inkscape:window-maximized="1"
     inkscape:current-layer="layer1" /><defs
     id="defs2" /><g
     inkscape:label="Layer 1"
     inkscape:groupmode="layer"
     id="layer1"
     transform="translate(42.216813,-151.15255)"><path
       style="fill:#000000;stroke-width:0.264583"
       d="m -6.9586849,205.58385 c -15.3782701,-17.95383 -25.3059871,-29.4446 -25.5071021,-29.52308 -0.124312,-0.0485 -0.226023,1.35406 -0.226023,3.11682 v 3.205 l 2.189792,2.43943 c 1.204386,1.34168 3.347511,3.72825 4.7625,5.30347 1.414989,1.57522 2.567554,3.06351 2.561254,3.30729 -0.0063,0.24379 -0.583785,1.08202 -1.283298,1.86272 -0.957688,1.06884 -1.396,1.37914 -1.774484,1.25619 -0.276452,-0.0898 -1.812327,-1.60991 -3.413056,-3.37804 l -2.910416,-3.21479 -0.06912,10.58399 -0.06911,10.58397 -2.576722,0.17063 c -3.250469,0.21526 -5.982242,0.22061 -6.523828,0.0127 -0.378211,-0.14513 -0.418515,-3.0371 -0.418515,-30.03021 0,-28.27943 0.02466,-29.86841 0.46302,-29.84706 0.254662,0.0124 1.713177,1.45965 3.241146,3.21614 3.094858,3.5577 17.282937,20.07878 23.415624,27.26595 2.182812,2.55812 4.117578,4.65873 4.299479,4.66804 0.246364,0.0127 0.330729,-0.75808 0.330729,-3.02114 v -3.03805 l -3.108854,-3.53383 c -1.70987,-1.9436 -3.912526,-4.42971 -4.894791,-5.52466 -0.982266,-1.09498 -1.785938,-2.12744 -1.785938,-2.29436 0,-0.50379 2.218788,-3.16791 2.655893,-3.18897 0.223816,-0.0109 1.81011,1.4687 3.525099,3.28771 1.714989,1.81901 3.228509,3.30729 3.363375,3.30729 0.146468,0 0.245216,-4.2504 0.245216,-10.55465 V 151.4677 l 0.5953125,-0.13129 c 1.3224007,-0.29162 8.1810459,-0.21801 8.554365,0.0918 0.56361542,0.46776 0.56503623,60.30711 0.00132,60.30711 -0.2056394,0 -2.7449831,-2.7682 -5.6429854,-6.15156 z"
       id="path350"
       sodipodi:nodetypes="csscsssssscccscsssscscscscssscscscc" /></g></svg>
